<svg width="30" height="29" viewBox="0 0 30 29" fill="none" xmlns="http://www.w3.org/2000/svg">
<path d="M28.75 0H1.25C0.918479 0 0.600537 0.152767 0.366117 0.424695C0.131696 0.696623 0 1.06544 0 1.45L0 27.55C0 27.9346 0.131696 28.3034 0.366117 28.5753C0.600537 28.8472 0.918479 29 1.25 29H28.75C29.0815 29 29.3995 28.8472 29.6339 28.5753C29.8683 28.3034 30 27.9346 30 27.55V1.45C30 1.06544 29.8683 0.696623 29.6339 0.424695C29.3995 0.152767 29.0815 0 28.75 0V0ZM27.5 26.1H25V24.65H18.75V26.1H2.5V2.9H27.5V26.1ZM12.8625 11.1795C12.8625 10.5219 13.0877 9.89123 13.4886 9.42623C13.8894 8.96123 14.4331 8.7 15 8.7C16.1875 8.7 17.1375 9.8165 17.1375 11.1795C17.1375 12.557 16.1875 13.6735 15 13.6735C13.8125 13.6735 12.8625 12.557 12.8625 11.1795ZM7.1375 13.4705C7.1375 12.441 7.8625 11.6 8.75 11.6C9.17766 11.6 9.58781 11.7971 9.89021 12.1479C10.1926 12.4986 10.3625 12.9744 10.3625 13.4705C10.3625 14.5 9.6375 15.3265 8.75 15.3265C7.8625 15.3265 7.1375 14.5 7.1375 13.4705ZM19.6375 13.4705C19.6375 12.9744 19.8074 12.4986 20.1098 12.1479C20.4122 11.7971 20.8223 11.6 21.25 11.6C21.6777 11.6 22.0878 11.7971 22.3902 12.1479C22.6926 12.4986 22.8625 12.9744 22.8625 13.4705C22.8625 14.5 22.1375 15.3265 21.25 15.3265C20.3625 15.3265 19.6375 14.5 19.6375 13.4705ZM25 19.053V20.3H20H17.5H12.5H10H5V19.053C5 17.69 6.9375 16.5735 8.75 16.5735C9.4375 16.5735 10.1375 16.733 10.75 17.0085C11.6875 16.008 13.375 15.3265 15 15.3265C16.625 15.3265 18.3125 16.008 19.25 17.0085C19.8625 16.733 20.5625 16.5735 21.25 16.5735C23.0625 16.5735 25 17.69 25 19.053Z" fill="white"/>
</svg>
