<svg width="30" height="28" viewBox="0 0 30 28" fill="none" xmlns="http://www.w3.org/2000/svg">
<path d="M27 0H3V2.33333H27V0ZM3 28H27V25.6667H3V28ZM27 4.66667H3C2.20435 4.66667 1.44129 4.9125 0.87868 5.35008C0.31607 5.78767 0 6.38116 0 7V21C0 21.6188 0.31607 22.2123 0.87868 22.6499C1.44129 23.0875 2.20435 23.3333 3 23.3333H27C27.7956 23.3333 28.5587 23.0875 29.1213 22.6499C29.6839 22.2123 30 21.6188 30 21V7C30 6.38116 29.6839 5.78767 29.1213 5.35008C28.5587 4.9125 27.7956 4.66667 27 4.66667ZM15 7.875C15.8951 7.875 16.7535 8.15156 17.3865 8.64384C18.0194 9.13613 18.375 9.80381 18.375 10.5C18.375 11.1962 18.0194 11.8639 17.3865 12.3562C16.7535 12.8484 15.8951 13.125 15 13.125C14.1049 13.125 13.2465 12.8484 12.6135 12.3562C11.9806 11.8639 11.625 11.1962 11.625 10.5C11.625 9.80381 11.9806 9.13613 12.6135 8.64384C13.2465 8.15156 14.1049 7.875 15 7.875ZM22.5 19.8333H7.5V18.0833C7.5 16.135 12.495 15.1667 15 15.1667C17.505 15.1667 22.5 16.135 22.5 18.0833V19.8333Z" fill="white"/>
</svg>
